<?xml version="1.0" encoding="UTF-8"?>
<svg width="39px" height="36px" viewBox="0 0 39 36" version="1.1" xmlns="http://www.w3.org/2000/svg" xmlns:xlink="http://www.w3.org/1999/xlink">
    <!-- Generator: Sketch 64 (93537) - https://sketch.com -->
    <title>img_intro02</title>
    <desc>Created with Sketch.</desc>
    <g id="Page-1" stroke="none" stroke-width="1" fill="none" fill-rule="evenodd">
        <g id="img_intro02" fill="#B0939C" fill-rule="nonzero">
            <path d="M24.9,32.6 C24.9,34.5 26.4,36 28.3,36 L35,36 C36.9,36 38.4,34.5 38.4,32.6 L38.4,31.5 L24.9,31.5 L24.9,32.6 Z" id="Path"></path>
            <rect id="Rectangle" x="24.9" y="20.2" width="13.5" height="9"></rect>
            <path d="M35,13.5 L28.3,13.5 C26.4,13.5 24.9,15 24.9,16.9 L24.9,18 L38.5,18 L38.5,16.9 C38.4,15 36.9,13.5 35,13.5 Z" id="Path"></path>
            <path d="M35,0 L3.4,0 C1.5,0 0,1.5 0,3.4 L0,22.5 L22.6,22.5 C22.6,22.2 22.6,16.9 22.6,16.9 C22.6,13.8 25.2,11.3 28.2,11.3 L35,11.3 C36.3,11.3 37.4,11.7 38.4,12.5 L38.4,3.5 C38.4,1.5 36.9,0 35,0 Z" id="Path"></path>
            <path d="M22.6,24.7 L0,24.7 L0,25.8 C0,27.7 1.5,29.2 3.4,29.2 L22.7,29.2 L22.6,24.7 L22.6,24.7 Z" id="Path"></path>
            <path d="M22.6,31.5 L12.4,31.5 L11.6,33.7 L7.9,33.7 C7.3,33.7 6.8,34.2 6.8,34.8 C6.8,35.4 7.3,35.9 7.9,35.9 L23.8,35.9 C23.1,35 22.6,33.8 22.6,32.5 C22.6,32.5 22.6,31.5 22.6,31.5 Z" id="Path"></path>
        </g>
    </g>
</svg>