<?xml version="1.0" encoding="UTF-8"?>
<svg width="45px" height="40px" viewBox="0 0 45 40" version="1.1" xmlns="http://www.w3.org/2000/svg" xmlns:xlink="http://www.w3.org/1999/xlink">
    <!-- Generator: Sketch 64 (93537) - https://sketch.com -->
    <title>Untitled 3</title>
    <desc>Created with Sketch.</desc>
    <g id="Page-1" stroke="none" stroke-width="1" fill="none" fill-rule="evenodd">
        <g id="img_intro01" fill="#B0939C" fill-rule="nonzero">
            <rect id="Rectangle" x="18.5" y="21.1" width="7.9" height="2.6"></rect>
            <path d="M40.3,21 C39.8,22.6 38.3,23.7 36.5,23.7 L29.1,23.7 L29.1,25 C29.1,25.7 28.5,26.3 27.8,26.3 L17.2,26.3 C16.5,26.3 15.9,25.7 15.9,25 L15.9,23.7 L8.5,23.7 C6.8,23.7 5.3,22.6 4.7,21 L0,6.8 L0,35.6 C0,37.8 1.8,39.6 4,39.6 L41,39.6 C43.2,39.6 45,37.8 45,35.6 L45,6.8 L40.3,21 Z" id="Path"></path>
            <path d="M8.5,21.1 L15.9,21.1 L15.9,19.8 C15.9,19.1 16.5,18.5 17.2,18.5 L27.7,18.5 C28.4,18.5 29,19.1 29,19.8 L29,21.1 L36.4,21.1 C37,21.1 37.5,20.7 37.7,20.2 L42.7,5.3 L31.7,5.3 L31.7,4 C31.7,1.8 29.9,0 27.7,0 L17.2,0 C15,0 13.2,1.8 13.2,4 L13.2,5.3 L2.2,5.3 L7.2,20.2 C7.4,20.7 7.9,21.1 8.5,21.1 Z M15.9,4 C15.9,3.3 16.5,2.7 17.2,2.7 L27.7,2.7 C28.4,2.7 29,3.3 29,4 L29,5.3 L15.9,5.3 L15.9,4 Z" id="Shape"></path>
        </g>
    </g>
</svg>