<?xml version="1.0" encoding="UTF-8"?>
<svg width="45px" height="45px" viewBox="0 0 45 45" version="1.1" xmlns="http://www.w3.org/2000/svg" xmlns:xlink="http://www.w3.org/1999/xlink">
    <!-- Generator: Sketch 64 (93537) - https://sketch.com -->
    <title>img_intro03</title>
    <desc>Created with Sketch.</desc>
    <g id="Page-1" stroke="none" stroke-width="1" fill="none" fill-rule="evenodd">
        <g id="img_intro03" transform="translate(-1.000000, 0.000000)" fill="#B0939C" fill-rule="nonzero">
            <path d="M44.8,10.5 C46.3,9 46.3,6.4 44.8,4.9 L41.1,1.2 C39.6,-0.3 37.1,-0.3 35.5,1.2 L34.6,2 L39.3,6.7 C39.8,7.2 39.8,8 39.3,8.6 C38.8,9.1 38,9.1 37.4,8.6 L32.7,3.9 L30.8,5.8 L33.6,8.6 C34.1,9.1 34.1,9.9 33.6,10.5 C33.1,11 32.3,11 31.7,10.5 L29,7.6 L25.3,11.3 L34.6,20.6 L44.8,10.5 Z" id="Path"></path>
            <path d="M8.5,28.1 L11.3,30.9 C11.8,31.4 11.8,32.2 11.3,32.8 C10.8,33.4 10,33.3 9.4,32.8 L6.7,30 L4.8,31.9 L9.5,36.6 C10,37.1 10,37.9 9.5,38.5 C9,39.1 8.2,39 7.6,38.5 L2.9,33.8 L2.1,34.6 C0.6,36.1 0.6,38.7 2.1,40.2 L5.8,43.9 C7.3,45.4 9.9,45.4 11.4,43.9 L21.5,33.8 L12.2,24.5 L8.5,28.1 Z" id="Path"></path>
            <path d="M6.1,13.8 L14.8,5.1 L2.8,0.1 C2.3,-0.1 1.8,0 1.4,0.4 C1,0.8 0.9,1.3 1.1,1.8 L6.1,13.8 Z" id="Path"></path>
            <polygon id="Path" points="37.4 34.5 41.1 30.8 16.9 6.7 13.2 10.4"></polygon>
            <polygon id="Path" points="11.3 12.3 7.6 16 31.8 40.1 35.5 36.4"></polygon>
            <path d="M42.9,32.6 L33.6,42 L35.5,43.9 C37,45.4 39.5,45.4 41.1,43.9 C41.1,43.9 41.1,43.9 41.1,43.9 L44.8,40.2 C46.3,38.7 46.3,36.2 44.8,34.6 L42.9,32.6 Z" id="Path"></path>
        </g>
    </g>
</svg>